<svg width="58" height="58" viewBox="0 0 58 58" fill="none" xmlns="http://www.w3.org/2000/svg">
<g filter="url(#filter0_d_2003_3466)">
<rect x="9" y="9" width="40" height="40" rx="20" fill="#1E3846" shape-rendering="crispEdges"/>
<rect x="8.5" y="8.5" width="41" height="41" rx="20.5" stroke="#0B232C" shape-rendering="crispEdges"/>
<path d="M35 27C35 22.59 31.41 19 27 19C22.59 19 19 22.59 19 27C19 31.41 22.59 35 27 35C28.85 35 30.54 34.37 31.9 33.31L37 38.41L38.41 37L33.31 31.9C34.4015 30.4995 34.9961 28.7756 35 27ZM21 27C21 23.69 23.69 21 27 21C30.31 21 33 23.69 33 27C33 30.31 30.31 33 27 33C23.69 33 21 30.31 21 27Z" fill="white"/>
</g>
<defs>
<filter id="filter0_d_2003_3466" x="0" y="0" width="58" height="58" filterUnits="userSpaceOnUse" color-interpolation-filters="sRGB">
<feFlood flood-opacity="0" result="BackgroundImageFix"/>
<feColorMatrix in="SourceAlpha" type="matrix" values="0 0 0 0 0 0 0 0 0 0 0 0 0 0 0 0 0 0 127 0" result="hardAlpha"/>
<feOffset/>
<feGaussianBlur stdDeviation="4"/>
<feComposite in2="hardAlpha" operator="out"/>
<feColorMatrix type="matrix" values="0 0 0 0 0 0 0 0 0 0 0 0 0 0 0 0 0 0 0.4 0"/>
<feBlend mode="normal" in2="BackgroundImageFix" result="effect1_dropShadow_2003_3466"/>
<feBlend mode="normal" in="SourceGraphic" in2="effect1_dropShadow_2003_3466" result="shape"/>
</filter>
</defs>
</svg>
