<svg width="40" height="40" viewBox="0 0 40 40" fill="none" xmlns="http://www.w3.org/2000/svg">
<path d="M40 35.7431C40 37.2097 38.8197 38.3997 37.3628 38.3997H2.63719C1.18166 38.3997 0 37.2111 0 35.7431V4.25663C0 2.78859 1.18027 1.59998 2.63719 1.59998H37.3628C38.8183 1.59998 40 2.78859 40 4.25663V35.7431ZM10.4223 10.4805C9.30317 11.6205 8.43986 12.9064 7.83651 14.3383C6.60202 17.2647 6.46439 20.2647 7.42363 23.337C7.96024 25.0581 8.89167 26.5928 10.0706 27.9107C10.1359 27.9858 10.4932 28.3445 11.141 28.9909C11.7888 29.6374 12.1503 29.9933 12.2254 30.0586C13.546 31.2319 15.078 32.1564 16.7935 32.6777C19.8533 33.6133 22.8283 33.4437 25.7199 32.1717C27.1352 31.5475 28.403 30.6675 29.5235 29.5275C30.6454 28.3876 31.5059 27.1017 32.1093 25.6684C33.3438 22.7434 33.4814 19.7434 32.5222 16.671C31.9855 14.95 31.0541 13.4152 29.8752 12.0973C29.8099 12.0222 29.4526 11.6622 28.8048 11.0171C28.157 10.3721 27.7969 10.0148 27.7204 9.94947C26.4011 8.77615 24.8678 7.85167 23.1537 7.32896C20.0938 6.39336 17.1174 6.56435 14.2258 7.83638C12.8106 8.45779 11.5428 9.34057 10.4223 10.4805Z" fill="#258EF1"/>
<path d="M11.6637 11.6094C11.6637 11.6094 11.6554 11.6191 11.6498 11.6247C9.15722 14.1882 7.93107 17.2619 7.97278 20.8416C7.99641 22.9033 8.54276 24.8899 9.61042 26.8C9.62016 26.8167 9.61599 26.8389 9.5993 26.8514C9.58123 26.8653 9.55482 26.8598 9.5423 26.8417C8.1257 24.8621 7.32356 22.7671 7.13866 20.5567C6.87592 17.4093 7.66137 14.5705 9.49365 12.0403C9.84676 11.551 10.2499 11.0825 10.6989 10.6321C11.1466 10.1803 11.6151 9.7785 12.1016 9.424C14.6207 7.58616 17.44 6.80349 20.5637 7.07874C22.7575 7.27059 24.8358 8.08524 26.796 9.51992C26.8141 9.53382 26.8196 9.55885 26.8085 9.57831C26.796 9.59638 26.7751 9.60194 26.7584 9.59221C24.8664 8.51064 22.8951 7.95317 20.8487 7.92259C17.2954 7.86976 14.2412 9.09452 11.6846 11.5969C11.679 11.6024 11.6749 11.6066 11.6693 11.6122H11.6665L11.6637 11.6094Z" fill="#258EF1"/>
<path d="M26.9225 27.0016C24.6634 29.2773 21.5133 30.434 18.3617 30.1142C16.129 29.8876 14.1522 29.0396 12.4325 27.5688C12.103 27.2866 11.6929 26.864 11.451 26.4733C9.97049 24.0836 9.44638 21.5381 9.87595 18.8412C10.1109 17.3676 10.7031 15.8939 11.654 14.4231C11.7819 14.2257 11.9974 14.038 12.1545 13.7572C12.1781 13.7141 12.2031 13.6752 12.2323 13.6363C12.2407 13.6238 12.4756 13.386 12.9399 12.9189C13.4029 12.4518 13.6406 12.2155 13.6517 12.2072C13.6906 12.178 13.7296 12.1529 13.7713 12.1293C14.0507 11.9708 14.237 11.754 14.433 11.6247C15.8927 10.6654 17.3552 10.069 18.8191 9.83271C21.4966 9.40036 24.0225 9.92863 26.3956 11.4175C26.7835 11.6608 27.2019 12.0737 27.4827 12.406C28.9438 14.1381 29.7863 16.1303 30.0115 18.3796C30.3299 21.5548 29.1816 24.7272 26.9225 27.003V27.0016Z" fill="#258EF1"/>
<path d="M28.2668 28.1985C27.6356 28.8463 26.9642 29.3982 26.2496 29.8528C24.5661 30.9246 22.6977 31.4682 20.643 31.4821C17.9321 31.4988 15.5118 30.5924 13.3792 28.7615C13.3737 28.7559 13.3723 28.7476 13.3764 28.7407L13.4182 28.6656C13.4182 28.6656 13.4334 28.6559 13.4418 28.66L14.5512 29.3523C14.5929 29.3774 14.6387 29.3982 14.6888 29.4107C15.1323 29.5289 15.5549 29.793 16.0011 29.9251C19.7088 31.0206 23.0869 30.4117 26.1398 28.097C26.5569 27.7814 26.9155 27.4686 27.2172 27.16C27.5161 26.8514 27.8192 26.483 28.125 26.0576C30.3604 22.9366 30.897 19.5209 29.7348 15.8091C29.5944 15.3628 29.3233 14.9416 29.1982 14.4967C29.1843 14.4495 29.1649 14.4036 29.1371 14.3605L28.4281 13.2567C28.4225 13.2484 28.4267 13.2386 28.4336 13.2331L28.5059 13.1886C28.5059 13.1886 28.5212 13.1872 28.5268 13.1914C30.3868 15.3017 31.3363 17.722 31.3739 20.4523C31.4031 22.5223 30.8998 24.4144 29.8697 26.1327C29.4318 26.8625 28.8966 27.5507 28.2668 28.1999V28.1985Z" fill="#258EF1"/>
</svg>
